#N canvas 780 83 544 451 10;
#X obj 68 279 osc~ 441;
#X obj 96 382 dac~;
#X floatatom 68 248 5 0 0 0 - - -;
#X obj 179 332 *~ 0;
#X msg 147 129 0;
#X msg 183 129 1;
#X obj 68 128 tgl 15 0 empty empty empty 17 7 0 10 -262144 -1 -1 1
1;
#X obj 68 180 bng 15 250 50 0 empty empty empty 17 7 0 10 -262144 -1
-1;
#X obj 234 100 netsend 1;
#X msg 237 58 connect localhost 7000;
#X obj 231 1 bng 15 250 50 0 empty empty empty 17 7 0 10 -262144 -1
-1;
#X msg 256 23 send foo;
#X obj 68 204 random 220;
#X obj 68 227 + 440;
#X obj 68 151 metro 100;
#X obj 88 65 loadbang;
#X msg 390 343 \; pd dsp 1;
#X obj 379 261 loadbang;
#X obj 355 385 print Running;
#X obj 378 299 delay 100;
#X obj 335 124 udpsend 127.0.0.1 7001;
#X obj 264 215 udpreceive 7000;
#X obj 264 172 udpsend;
#X obj 258 239 unpackOSC;
#X obj 220 338 route /nums;
#X obj 222 369 unpack 0 0 f;
#X floatatom 201 424 5 0 0 0 - - -;
#X floatatom 250 421 5 0 0 0 - - -;
#X floatatom 305 423 5 0 0 0 - - -;
#X obj 273 278 route /pitch;
#X obj 269 315 print pitch;
#X connect 0 0 3 0;
#X connect 2 0 0 0;
#X connect 3 0 1 0;
#X connect 4 0 3 1;
#X connect 5 0 3 1;
#X connect 6 0 14 0;
#X connect 7 0 12 0;
#X connect 9 0 8 0;
#X connect 10 0 9 0;
#X connect 11 0 8 0;
#X connect 12 0 13 0;
#X connect 13 0 2 0;
#X connect 14 0 7 0;
#X connect 15 0 6 0;
#X connect 15 0 5 0;
#X connect 17 0 19 0;
#X connect 19 0 16 0;
#X connect 19 0 18 0;
#X connect 21 0 23 0;
#X connect 23 0 24 0;
#X connect 23 0 29 0;
#X connect 24 0 25 0;
#X connect 25 0 26 0;
#X connect 25 1 27 0;
#X connect 25 2 28 0;
#X connect 29 0 13 1;
#X connect 29 0 30 0;
